<svg xmlns="http://www.w3.org/2000/svg" width="25" height="20" fill="none" viewBox="0 0 25 20"><path fill="#fff" d="M6.49 14.683a.8.8 0 0 1 .264.129.7.7 0 0 1 .187.205.574.574 0 0 1 .042.509l-.781 1.997a.64.64 0 0 1-.146.235.8.8 0 0 1-.242.169.9.9 0 0 1-.61.041.8.8 0 0 1-.27-.133.7.7 0 0 1-.188-.212.578.578 0 0 1-.026-.52l.782-1.998a.7.7 0 0 1 .39-.386c.186-.079.4-.092.597-.036m4.687 0a.8.8 0 0 1 .265.129.7.7 0 0 1 .187.205.575.575 0 0 1 .042.509l-1.563 3.995a.6.6 0 0 1-.145.235.8.8 0 0 1-.242.168.907.907 0 0 1-.61.042.8.8 0 0 1-.27-.133.7.7 0 0 1-.188-.212.59.59 0 0 1-.026-.521l1.563-3.995a.7.7 0 0 1 .39-.386c.186-.079.4-.092.597-.036m4.688 0a.8.8 0 0 1 .265.129.7.7 0 0 1 .187.205.59.59 0 0 1 .042.509l-.781 1.997a.64.64 0 0 1-.146.235.8.8 0 0 1-.242.169.9.9 0 0 1-.61.041.8.8 0 0 1-.27-.133.7.7 0 0 1-.188-.212.59.59 0 0 1-.026-.52l.782-1.998a.7.7 0 0 1 .391-.386c.185-.079.4-.092.596-.036m4.688 0a.8.8 0 0 1 .265.129.7.7 0 0 1 .187.205.575.575 0 0 1 .042.509l-1.562 3.995a.64.64 0 0 1-.146.235.8.8 0 0 1-.242.168.907.907 0 0 1-.61.042.8.8 0 0 1-.27-.133.7.7 0 0 1-.188-.212.578.578 0 0 1-.026-.52l1.563-3.996a.7.7 0 0 1 .391-.386c.185-.079.4-.092.596-.036m.386-9.32c-.324-1.393-1.163-2.662-2.395-3.62-1.231-.96-2.79-1.557-4.449-1.706s-3.33.157-4.769.875-2.571 1.81-3.23 3.115a6.4 6.4 0 0 0-2.202.167 5.8 5.8 0 0 0-1.944.895A4.9 4.9 0 0 0 .58 6.567 4.033 4.033 0 0 0 .33 10.25a4.6 4.6 0 0 0 1.16 1.604c.51.462 1.125.83 1.808 1.081.683.252 1.42.383 2.164.384h14.846c1.189 0 2.334-.383 3.204-1.075.87-.691 1.398-1.639 1.478-2.65s-.293-2.01-1.045-2.796c-.752-.785-1.826-1.298-3.005-1.433"/></svg>