<svg xmlns="http://www.w3.org/2000/svg" width="27" height="22" fill="none" viewBox="0 0 27 22"><path fill="#004990" d="M26.965 10.271c.17-.405-.316-.75-.723-.57a6.4 6.4 0 0 1-2.584.54c-3.488 0-6.315-2.77-6.315-6.188 0-1.153.328-2.283.945-3.258.237-.373-.047-.89-.48-.78C14.467.868 12 3.845 12 7.385 12 11.591 15.48 15 19.772 15c3.25 0 6.033-1.954 7.193-4.729"/><path fill="#004990" d="M22.51.086c-.442-.295-.97.231-.675.673l.525.788a1.94 1.94 0 0 1 0 2.156l-.525.788c-.294.441.233.968.675.673l.787-.525a1.94 1.94 0 0 1 2.156 0l.788.525c.442.295.968-.232.673-.673l-.525-.788a1.94 1.94 0 0 1 0-2.156l.525-.788c.295-.442-.231-.968-.674-.673l-.787.525a1.94 1.94 0 0 1-2.156 0z"/><path fill="#fff" d="M20.077 13.368c-.197-1.647-.99-3.183-2.25-4.356S14.912 7.098 13.14 6.91a8.36 8.36 0 0 0-5.074 1.072c-1.512.881-2.656 2.213-3.245 3.777-1.351.102-2.607.686-3.505 1.629S-.05 15.56.004 16.818c.056 1.257.634 2.445 1.612 3.316s2.281 1.357 3.637 1.356h14.871c1.16-.006 2.27-.44 3.086-1.205s1.27-1.8 1.265-2.878c-.007-1.077-.474-2.108-1.298-2.865a4.55 4.55 0 0 0-3.1-1.174"/></svg>