<svg width="20" height="25" viewBox="0 0 20 25" fill="none" xmlns="http://www.w3.org/2000/svg">
<path d="M11.6 0.0178031C11.3935 -0.0196193 11.1806 0.0022228 10.9859 0.0808007C10.7913 0.159379 10.6229 0.291478 10.5003 0.461803C10.3776 0.632128 10.3057 0.833712 10.2929 1.04321C10.28 1.25272 10.3268 1.46157 10.4278 1.64558C11.0071 2.69979 11.2287 3.91356 11.0591 5.10445C10.8895 6.29535 10.338 7.39903 9.48737 8.24962C8.63678 9.10021 7.5331 9.65174 6.3422 9.82132C5.15131 9.9909 3.93754 9.76937 2.88333 9.19003C2.69932 9.08906 2.49047 9.04229 2.28097 9.05511C2.07146 9.06794 1.86988 9.13984 1.69956 9.2625C1.52923 9.38516 1.39713 9.55355 1.31855 9.74818C1.23998 9.94281 1.21813 10.1557 1.25556 10.3623C1.39531 11.1269 1.63476 11.8699 1.96778 12.5723C2.05816 12.762 2.20051 12.9222 2.3783 13.0344C2.55609 13.1465 2.76204 13.2058 2.97222 13.2056H17.03C17.2402 13.2058 17.4461 13.1465 17.6239 13.0344C17.8017 12.9222 17.9441 12.762 18.0344 12.5723C18.6188 11.34 18.9119 9.98978 18.8909 8.62612C18.87 7.26247 18.5356 5.92191 17.9137 4.70815C17.2918 3.49439 16.399 2.43997 15.3044 1.62646C14.2097 0.812948 12.9427 0.262156 11.6011 0.0166918L11.6 0.0178031ZM0 15.4289C0 15.1342 0.117063 14.8516 0.325437 14.6432C0.533811 14.4349 0.816426 14.3178 1.11111 14.3178H18.8889C19.1836 14.3178 19.4662 14.4349 19.6746 14.6432C19.8829 14.8516 20 15.1342 20 15.4289C20 15.7236 19.8829 16.0062 19.6746 16.2146C19.4662 16.423 19.1836 16.54 18.8889 16.54H1.11111C0.816426 16.54 0.533811 16.423 0.325437 16.2146C0.117063 16.0062 0 15.7236 0 15.4289ZM3.33333 19.8734C3.33333 19.5787 3.4504 19.2961 3.65877 19.0877C3.86714 18.8793 4.14976 18.7623 4.44444 18.7623H15.5556C15.8502 18.7623 16.1329 18.8793 16.3412 19.0877C16.5496 19.2961 16.6667 19.5787 16.6667 19.8734C16.6667 20.1681 16.5496 20.4507 16.3412 20.659C16.1329 20.8674 15.8502 20.9845 15.5556 20.9845H4.44444C4.14976 20.9845 3.86714 20.8674 3.65877 20.659C3.4504 20.4507 3.33333 20.1681 3.33333 19.8734Z" fill="#004990"/>
</svg>
