<svg xmlns="http://www.w3.org/2000/svg" width="20" height="25" fill="none" viewBox="0 0 20 25"><path fill="#004990" d="M11.6.018a1.111 1.111 0 0 0-1.172 1.628A5.556 5.556 0 0 1 2.883 9.19a1.111 1.111 0 0 0-1.627 1.172c.14.765.379 1.508.712 2.21a1.11 1.11 0 0 0 1.004.634H17.03a1.11 1.11 0 0 0 1.004-.634A8.89 8.89 0 0 0 11.601.017zM0 15.428a1.11 1.11 0 0 1 1.111-1.11H18.89a1.111 1.111 0 0 1 0 2.222H1.11A1.11 1.11 0 0 1 0 15.429m3.333 4.445a1.11 1.11 0 0 1 1.111-1.11h11.112a1.11 1.11 0 1 1 0 2.221H4.444a1.11 1.11 0 0 1-1.11-1.11"/></svg>