<svg xmlns="http://www.w3.org/2000/svg" width="25" height="18" fill="none" viewBox="0 0 25 18"><path fill="#ed653b" d="M25 13.091a.8.8 0 0 1-.244.579.84.84 0 0 1-.59.24H.834a.84.84 0 0 1-.589-.24.81.81 0 0 1 0-1.158.84.84 0 0 1 .59-.24h4.213a7.296 7.296 0 0 1 2.15-6.025A7.57 7.57 0 0 1 12.5 4.092c1.99 0 3.897.776 5.303 2.157a7.3 7.3 0 0 1 2.15 6.025h4.214c.22 0 .433.086.589.24a.8.8 0 0 1 .244.578m-4.167 3.273H4.167a.84.84 0 0 0-.59.24.81.81 0 0 0 0 1.156c.157.154.369.24.59.24h16.666a.84.84 0 0 0 .59-.24.81.81 0 0 0 0-1.157.84.84 0 0 0-.59-.24M7.588 2.82a.82.82 0 0 0 .482.41.85.85 0 0 0 .893-.24.82.82 0 0 0 .202-.594.8.8 0 0 0-.086-.308L8.246.453a.83.83 0 0 0-.482-.411.85.85 0 0 0-.637.044.82.82 0 0 0-.418.474.8.8 0 0 0 .045.625zM1.294 7.278l1.666.818a.85.85 0 0 0 .637.045.83.83 0 0 0 .482-.41.8.8 0 0 0 .045-.625.82.82 0 0 0-.418-.473L2.04 5.815A.845.845 0 0 0 .92 6.18a.807.807 0 0 0 .373 1.098m20.373.904c.129 0 .256-.03.371-.086l1.667-.818a.83.83 0 0 0 .418-.473.8.8 0 0 0-.245-.877.84.84 0 0 0-.605-.198.9.9 0 0 0-.314.085l-1.666.818a.83.83 0 0 0-.382.385.805.805 0 0 0 .239.988c.147.114.329.176.517.176m-5.373-4.995a.846.846 0 0 0 1.119-.366l.833-1.636A.8.8 0 0 0 18.29.56a.82.82 0 0 0-.418-.474.85.85 0 0 0-.637-.044.83.83 0 0 0-.482.41l-.833 1.637a.81.81 0 0 0 .373 1.098"/></svg>