<svg xmlns="http://www.w3.org/2000/svg" width="18" height="18" fill="none" viewBox="0 0 18 18"><path fill="#004990" d="M17.958 12.325c.204-.486-.379-.9-.868-.684a7.7 7.7 0 0 1-3.101.648c-4.185 0-7.577-3.324-7.577-7.425A7.3 7.3 0 0 1 7.546.954C7.83.506 7.489-.114 6.969.018 2.96 1.041 0 4.613 0 8.862 0 13.91 4.175 18 9.326 18c3.9 0 7.24-2.345 8.632-5.675"/><path fill="#004990" d="M12.611.103c-.53-.354-1.162.278-.809.808l.63.945a2.33 2.33 0 0 1 0 2.588l-.63.945c-.353.53.28 1.162.81.808l.944-.63a2.33 2.33 0 0 1 2.588 0l.945.63c.53.354 1.162-.278.808-.808l-.63-.945a2.33 2.33 0 0 1 0-2.588l.63-.945c.354-.53-.278-1.162-.809-.808l-.944.63a2.33 2.33 0 0 1-2.588 0z"/></svg>