<svg xmlns="http://www.w3.org/2000/svg" width="28" height="20" fill="none" viewBox="0 0 28 20"><path fill="#fff" d="M20.077 11.368c-.197-1.647-.99-3.183-2.25-4.356S14.912 5.098 13.14 4.91a8.36 8.36 0 0 0-5.074 1.072C6.554 6.864 5.41 8.196 4.821 9.76c-1.351.102-2.607.686-3.505 1.629S-.05 13.56.004 14.818c.056 1.257.634 2.445 1.612 3.316s2.281 1.357 3.637 1.356h14.871c1.16-.006 2.27-.44 3.086-1.205s1.27-1.8 1.265-2.878c-.007-1.077-.474-2.108-1.298-2.865a4.56 4.56 0 0 0-3.1-1.174"/><path fill="#fff" d="M25.45 12.622a5.8 5.8 0 0 0-1.642-1.736 6.3 6.3 0 0 0-2.25-.986c-.621-2.185-2.11-4.07-4.167-5.276S12.86 2.98 10.47 3.4A6.8 6.8 0 0 1 13.418.72a7.47 7.47 0 0 1 4.06-.672 7.27 7.27 0 0 1 3.764 1.566 6.45 6.45 0 0 1 2.161 3.262 4.6 4.6 0 0 1 2.834.797 4.06 4.06 0 0 1 1.637 2.291 3.8 3.8 0 0 1-.31 2.734 4.24 4.24 0 0 1-2.114 1.923"/></svg>