<svg xmlns="http://www.w3.org/2000/svg" width="29" height="22" fill="none" viewBox="0 0 29 22"><path stroke="#ed653b" stroke-linecap="round" stroke-linejoin="round" stroke-width="2" d="M20 16.2v.8m7.2-8h.8m-8-7.2V1m-7.2 8H12"/><path fill="#ed653b" stroke="#ed653b" stroke-linecap="round" stroke-linejoin="round" stroke-width="2" d="M20 5c2.208 0 4 1.792 4 4s-1.792 4-4 4-4-1.792-4-4 1.792-4 4-4"/><path stroke="#ed653b" stroke-linecap="round" stroke-linejoin="round" stroke-width="2" d="m25.2 14.2.4.4m-.4-10.8.4-.4m-10.8.4-.4-.4m.4 10.8-.4.4"/><path fill="#fff" d="M20.077 13.368c-.197-1.647-.99-3.183-2.25-4.356S14.912 7.098 13.14 6.91a8.36 8.36 0 0 0-5.074 1.072c-1.512.881-2.656 2.213-3.245 3.777-1.351.102-2.607.686-3.505 1.629S-.05 15.56.004 16.817c.056 1.258.634 2.446 1.612 3.317s2.281 1.357 3.637 1.356h14.871c1.16-.006 2.27-.44 3.086-1.205s1.27-1.8 1.265-2.878c-.007-1.077-.474-2.108-1.298-2.865a4.56 4.56 0 0 0-3.1-1.174"/></svg>